<svg xmlns="http://www.w3.org/2000/svg" width="47" height="47" viewBox="0 0 47 47">
  <g id="Grupo_1182652" data-name="Grupo 1182652" transform="translate(-186.502 -729.02)">
    <g id="Grupo_1177021" data-name="Grupo 1177021" transform="translate(6.502 -303.796)">
      <circle id="Elipse_11508" data-name="Elipse 11508" cx="23.5" cy="23.5" r="23.5" transform="translate(180 1032.815)" fill="#a60d29"/>
    </g>
    <path id="language_24dp_E3E3E3_FILL0_wght300_GRAD-25_opsz24" d="M116.452-825.6a13.86,13.86,0,0,1-4.358-2.938,13.859,13.859,0,0,1-2.938-4.358,13.32,13.32,0,0,1-1.076-5.329,13.258,13.258,0,0,1,1.08-5.326,13.928,13.928,0,0,1,2.94-4.356,13.842,13.842,0,0,1,4.355-2.94,13.306,13.306,0,0,1,5.331-1.077,13.238,13.238,0,0,1,5.323,1.078,13.914,13.914,0,0,1,4.351,2.943,13.915,13.915,0,0,1,2.943,4.351,13.237,13.237,0,0,1,1.078,5.323,13.311,13.311,0,0,1-1.078,5.333,13.852,13.852,0,0,1-2.943,4.358,13.923,13.923,0,0,1-4.351,2.938,13.257,13.257,0,0,1-5.323,1.076A13.33,13.33,0,0,1,116.452-825.6Zm5.327-.927a19.545,19.545,0,0,0,1.93-3.064,17.892,17.892,0,0,0,1.272-3.369h-6.4a18.249,18.249,0,0,0,1.279,3.426A17.839,17.839,0,0,0,121.78-826.524Zm-2.675-.435a17.359,17.359,0,0,1-1.572-2.818,17.443,17.443,0,0,1-1.072-3.181h-5.025a11.2,11.2,0,0,0,3.157,3.9A11.087,11.087,0,0,0,119.1-826.959Zm5.349,0a11.018,11.018,0,0,0,4.508-2.1,11.281,11.281,0,0,0,3.168-3.9h-5.025a22.66,22.66,0,0,1-1.15,3.2,20.884,20.884,0,0,1-1.5,2.8Zm-13.855-8.06h5.429q-.139-.833-.2-1.625t-.063-1.576q0-.783.063-1.576t.2-1.626H110.6a10.589,10.589,0,0,0-.344,1.574,11.647,11.647,0,0,0-.113,1.628,11.645,11.645,0,0,0,.113,1.628A10.588,10.588,0,0,0,110.6-835.019Zm7.509,0h7.351q.143-.833.209-1.605t.066-1.6q0-.824-.066-1.6t-.209-1.605h-7.351q-.15.833-.216,1.605t-.066,1.6q0,.824.066,1.6T118.108-835.019Zm9.424,0h5.436a11.193,11.193,0,0,0,.337-1.574,11.641,11.641,0,0,0,.113-1.628,11.643,11.643,0,0,0-.113-1.628,11.194,11.194,0,0,0-.337-1.574h-5.436q.139.833.2,1.626t.063,1.576q0,.784-.063,1.576T127.531-835.019Zm-.426-8.465h5.025a11.239,11.239,0,0,0-3.139-3.9,11.351,11.351,0,0,0-4.537-2.117,20.212,20.212,0,0,1,1.561,2.868A19.179,19.179,0,0,1,127.106-843.483Zm-8.521,0h6.4a18.853,18.853,0,0,0-1.307-3.444,17.675,17.675,0,0,0-1.895-2.99,17.673,17.673,0,0,0-1.895,2.99A18.508,18.508,0,0,0,118.585-843.483Zm-7.149,0h5.025a18.724,18.724,0,0,1,1.083-3.145A20.212,20.212,0,0,1,119.1-849.5a11.39,11.39,0,0,0-4.54,2.125A11.2,11.2,0,0,0,111.436-843.483Z" transform="translate(88.223 1590.74)" fill="#fff"/>
  </g>
</svg>
